<svg id="Layer_1" data-name="Layer 1" xmlns="http://www.w3.org/2000/svg" viewBox="0 0 816.48649 384.65315"><defs><style>.cls-1{fill:#fff;}.cls-1,.cls-10,.cls-11,.cls-12,.cls-13,.cls-14,.cls-15,.cls-16,.cls-2,.cls-3,.cls-4,.cls-7,.cls-8,.cls-9{stroke:#231f20;}.cls-1,.cls-10,.cls-11,.cls-12,.cls-13,.cls-14,.cls-15,.cls-16,.cls-2,.cls-5,.cls-6,.cls-7,.cls-8,.cls-9{stroke-linecap:round;stroke-linejoin:round;}.cls-1,.cls-10,.cls-11,.cls-12,.cls-13,.cls-14,.cls-15,.cls-16,.cls-2,.cls-3,.cls-4,.cls-5,.cls-6,.cls-7,.cls-8,.cls-9{stroke-width:2px;}.cls-2{fill:#ededed;}.cls-3{fill:#90c9f8;}.cls-3,.cls-4{stroke-miterlimit:10;}.cls-4{fill:#b61823;}.cls-17,.cls-5,.cls-8{fill:none;}.cls-5{stroke:#fff;}.cls-16,.cls-6{fill:#3f4749;}.cls-6{stroke:#3f4749;}.cls-7{fill:#ffbd66;}.cls-9{fill:#231f20;}.cls-10{fill:#c4cbcc;}.cls-11{fill:#d5dadb;}.cls-12{fill:#545c5e;}.cls-13{fill:#22abff;}.cls-14{fill:#ff64bd;}.cls-15{fill:#7fefd2;}</style></defs><title>about</title><path id="_Rectangle_" data-name="&lt;Rectangle&gt;" class="cls-1" d="M501.66973,365.88586h238a0,0,0,0,1,0,0v3a14.5,14.5,0,0,1-14.5,14.5h-209a14.5,14.5,0,0,1-14.5-14.5v-3a0,0,0,0,1,0,0Z"/><rect id="_Rectangle_2" data-name="&lt;Rectangle&gt;" class="cls-2" x="595.50306" y="365.88586" width="50.33333" height="8.75"/><path id="_Rectangle_3" data-name="&lt;Rectangle&gt;" class="cls-1" d="M533.62806,253.88586H707.71139a10.20833,10.20833,0,0,1,10.20833,10.20833V365.88586a0,0,0,0,1,0,0h-194.5a0,0,0,0,1,0,0V264.09419A10.20833,10.20833,0,0,1,533.62806,253.88586Z"/><g id="_Group_" data-name="&lt;Group&gt;"><rect id="_Path_" data-name="&lt;Path&gt;" class="cls-3" x="533.41956" y="263.88586" width="174.50049" height="92"/><rect id="_Path_2" data-name="&lt;Path&gt;" class="cls-3" x="533.41956" y="263.88586" width="174.50049" height="92"/></g><rect id="_Rectangle_4" data-name="&lt;Rectangle&gt;" class="cls-4" x="577.00658" y="279.31954" width="87.32629" height="61.98929" rx="6.03792" ry="6.03792"/><path id="_Path_3" data-name="&lt;Path&gt;" class="cls-2" d="M658.29493,279.15289H583.0445a6.03788,6.03788,0,0,0-6.0379,6.0379v4.4278h87.32629v-4.4278A6.03794,6.03794,0,0,0,658.29493,279.15289Z"/><g id="_Group_2" data-name="&lt;Group&gt;"><g id="_Group_3" data-name="&lt;Group&gt;"><path id="_Path_4" data-name="&lt;Path&gt;" class="cls-5" d="M616.64245,322.809h0a3.39065,3.39065,0,0,1-3.39066-3.39065v-4.35942l-3.62942-1.69533,3.62942-1.69533v-4.35942a3.39065,3.39065,0,0,1,3.39066-3.39065h0"/><path id="_Path_5" data-name="&lt;Path&gt;" class="cls-5" d="M624.51872,322.809h0a3.39065,3.39065,0,0,0,3.39066-3.39065v-4.35942l3.62942-1.69533-3.62942-1.69533v-4.35942a3.39065,3.39065,0,0,0-3.39066-3.39065h0"/></g><line id="_Path_6" data-name="&lt;Path&gt;" class="cls-5" x1="607.40342" y1="322.809" x2="595.40342" y2="322.809"/><line id="_Path_7" data-name="&lt;Path&gt;" class="cls-5" x1="633.57948" y1="322.809" x2="645.93604" y2="303.81937"/></g><circle id="_Path_8" data-name="&lt;Path&gt;" class="cls-6" cx="620.66981" cy="258.88586" r="1.75"/><g id="_Group_4" data-name="&lt;Group&gt;"><g id="_Group_5" data-name="&lt;Group&gt;"><rect id="_Rectangle_5" data-name="&lt;Rectangle&gt;" class="cls-7" x="434.74647" y="277.75633" width="13.11189" height="93.6402" transform="translate(63.46245 -72.07788) rotate(10.05722)"/><g id="_Group_6" data-name="&lt;Group&gt;"><line id="_Path_9" data-name="&lt;Path&gt;" class="cls-8" x1="442.15778" y1="282.21203" x2="447.9709" y2="283.24303"/><line id="_Path_10" data-name="&lt;Path&gt;" class="cls-8" x1="441.24396" y1="287.36447" x2="444.15052" y2="287.87997"/><line id="_Path_11" data-name="&lt;Path&gt;" class="cls-8" x1="440.33013" y1="292.51691" x2="443.2367" y2="293.03241"/><line id="_Path_12" data-name="&lt;Path&gt;" class="cls-8" x1="439.41631" y1="297.66935" x2="442.32288" y2="298.18485"/><line id="_Path_13" data-name="&lt;Path&gt;" class="cls-8" x1="438.50249" y1="302.82179" x2="444.31562" y2="303.85279"/><line id="_Path_14" data-name="&lt;Path&gt;" class="cls-8" x1="437.58867" y1="307.97423" x2="440.49523" y2="308.48973"/><line id="_Path_15" data-name="&lt;Path&gt;" class="cls-8" x1="436.67485" y1="313.12667" x2="439.58141" y2="313.64217"/><line id="_Path_16" data-name="&lt;Path&gt;" class="cls-8" x1="435.76103" y1="318.27911" x2="438.66759" y2="318.79461"/><line id="_Path_17" data-name="&lt;Path&gt;" class="cls-8" x1="434.84721" y1="323.43155" x2="440.66033" y2="324.46255"/><line id="_Path_18" data-name="&lt;Path&gt;" class="cls-8" x1="433.93339" y1="328.58399" x2="436.83995" y2="329.09949"/><line id="_Path_19" data-name="&lt;Path&gt;" class="cls-8" x1="433.01957" y1="333.73643" x2="435.92613" y2="334.25193"/><line id="_Path_20" data-name="&lt;Path&gt;" class="cls-8" x1="432.10574" y1="338.88887" x2="435.01231" y2="339.40437"/><line id="_Path_21" data-name="&lt;Path&gt;" class="cls-8" x1="431.19192" y1="344.04131" x2="437.00505" y2="345.07231"/><line id="_Path_22" data-name="&lt;Path&gt;" class="cls-8" x1="430.2781" y1="349.19375" x2="433.18467" y2="349.70925"/><line id="_Path_23" data-name="&lt;Path&gt;" class="cls-8" x1="429.36428" y1="354.34619" x2="432.27084" y2="354.86169"/><line id="_Path_24" data-name="&lt;Path&gt;" class="cls-8" x1="428.45046" y1="359.49863" x2="431.35702" y2="360.01413"/><line id="_Path_25" data-name="&lt;Path&gt;" class="cls-8" x1="427.53664" y1="364.65107" x2="433.34977" y2="365.68207"/></g></g><g id="_Group_7" data-name="&lt;Group&gt;"><rect id="_Rectangle_6" data-name="&lt;Rectangle&gt;" class="cls-3" x="439.49103" y="311.29522" width="7.41667" height="59.5" transform="translate(138.13445 -127.64755) rotate(19.36197)"/><polygon id="_Path_26" data-name="&lt;Path&gt;" class="cls-7" points="449.564 311.748 455.715 305.43 456.561 314.207 449.564 311.748"/><polygon id="_Path_27" data-name="&lt;Path&gt;" class="cls-9" points="453.284 307.927 456.049 308.899 455.715 305.43 453.284 307.927"/><line id="_Path_28" data-name="&lt;Path&gt;" class="cls-8" x1="433.3362" y1="369.11265" x2="453.06252" y2="312.9778"/><rect id="_Rectangle_7" data-name="&lt;Rectangle&gt;" class="cls-10" x="429.07241" y="369.0179" width="7.41667" height="3.35076" transform="translate(147.37457 -122.51661) rotate(19.36197)"/><rect id="_Rectangle_8" data-name="&lt;Rectangle&gt;" class="cls-2" x="427.46711" y="372.09481" width="7.41667" height="6.33333" transform="translate(148.7983 -121.72603) rotate(19.36197)"/></g><g id="_Group_8" data-name="&lt;Group&gt;"><rect id="_Rectangle_9" data-name="&lt;Rectangle&gt;" class="cls-3" x="423.49566" y="311.22766" width="7.41667" height="59.5" transform="translate(884.08896 641.01956) rotate(174.69788)"/><polygon id="_Path_29" data-name="&lt;Path&gt;" class="cls-7" points="433.646 370.258 430.692 378.566 426.261 370.943 433.646 370.258"/><polygon id="_Path_30" data-name="&lt;Path&gt;" class="cls-6" points="431.859 375.283 428.941 375.554 430.692 378.566 431.859 375.283"/><line id="_Path_31" data-name="&lt;Path&gt;" class="cls-8" x1="424.45487" y1="311.35495" x2="429.95311" y2="370.60037"/><rect id="_Rectangle_10" data-name="&lt;Rectangle&gt;" class="cls-10" x="420.59172" y="308.01135" width="7.41667" height="3.35076" transform="translate(875.40199 578.83994) rotate(174.69788)"/><rect id="_Rectangle_11" data-name="&lt;Rectangle&gt;" class="cls-2" x="420.14428" y="301.69874" width="7.41667" height="6.33333" transform="translate(874.0635 569.25926) rotate(174.69788)"/></g><path id="_Rectangle_12" data-name="&lt;Rectangle&gt;" class="cls-10" d="M419.5667,344.90327h32.16667a0,0,0,0,1,0,0v32.93466a5.54791,5.54791,0,0,1-5.54791,5.54791H425.11461a5.54791,5.54791,0,0,1-5.54791-5.54791V344.90327A0,0,0,0,1,419.5667,344.90327Z"/><rect id="_Rectangle_13" data-name="&lt;Rectangle&gt;" class="cls-11" x="417.65004" y="337.40327" width="36" height="7.5"/><line id="_Path_32" data-name="&lt;Path&gt;" class="cls-8" x1="423.76404" y1="345.07231" x2="423.76404" y2="360.01413"/><line id="_Path_33" data-name="&lt;Path&gt;" class="cls-8" x1="447.23337" y1="361.64174" x2="447.23337" y2="365.68207"/><line id="_Path_34" data-name="&lt;Path&gt;" class="cls-8" x1="447.23337" y1="369.11265" x2="447.23337" y2="373.15298"/></g><path id="_Path_35" data-name="&lt;Path&gt;" class="cls-10" d="M198.348,370.3816a84.01746,84.01746,0,0,0-21.22186-2.39514,84.01746,84.01746,0,0,0-21.22186,2.39514H147.6259v5.43817c0,4.32623,13.2077,7.83337,29.50024,7.83337s29.50018-3.50714,29.50018-7.83337V370.3816Z"/><ellipse id="_Path_36" data-name="&lt;Path&gt;" class="cls-2" cx="177.12612" cy="370.3816" rx="29.50023" ry="7.83333"/><path id="_Path_37" data-name="&lt;Path&gt;" class="cls-1" d="M81.00536,335.48164A22.0666,22.0666,0,0,0,103.072,357.54823H251.18022a22.0666,22.0666,0,0,0,22.06665-22.06659v-.49049H81.00536Z"/><path id="_Path_38" data-name="&lt;Path&gt;" class="cls-12" d="M251.18022,221.99043H103.072a22.06665,22.06665,0,0,0-22.06665,22.06665v90.93407H273.24687V244.05708A22.06665,22.06665,0,0,0,251.18022,221.99043Z"/><g id="_Group_9" data-name="&lt;Group&gt;"><path id="_Path_39" data-name="&lt;Path&gt;" class="cls-4" d="M91.00511,334.99114V244.05678a12.08043,12.08043,0,0,1,12.06738-12.06641H251.17992a12.08043,12.08043,0,0,1,12.06738,12.06641l0,90.93436Z"/><path id="_Path_40" data-name="&lt;Path&gt;" class="cls-4" d="M91.00511,334.99114V244.05678a12.08043,12.08043,0,0,1,12.06738-12.06641H251.17992a12.08043,12.08043,0,0,1,12.06738,12.06641l0,90.93436Z"/></g><circle id="_Path_41" data-name="&lt;Path&gt;" class="cls-11" cx="177.12621" cy="345.81494" r="3.79696"/><g id="_Group_10" data-name="&lt;Group&gt;"><line id="_Path_42" data-name="&lt;Path&gt;" class="cls-5" x1="157.12807" y1="276.58159" x2="171.05527" y2="262.65439"/><line id="_Path_43" data-name="&lt;Path&gt;" class="cls-5" x1="183.19715" y1="276.58159" x2="197.12435" y2="262.65439"/><line id="_Path_44" data-name="&lt;Path&gt;" class="cls-5" x1="164.64428" y1="282.09992" x2="189.60813" y2="257.13607"/></g><rect id="_Rectangle_14" data-name="&lt;Rectangle&gt;" class="cls-2" x="161.94234" y="357.54823" width="30.36755" height="12.83337"/><g id="_Group_11" data-name="&lt;Group&gt;"><polygon id="_Path_45" data-name="&lt;Path&gt;" class="cls-1" points="317.83 383.005 247.491 383.148 235.246 370.902 235.246 265.562 317.83 265.562 317.83 383.005"/><polygon id="_Path_46" data-name="&lt;Path&gt;" class="cls-11" points="235.246 370.902 247.491 383.148 247.491 370.902 235.246 370.902"/><line id="_Path_47" data-name="&lt;Path&gt;" class="cls-8" x1="253.18658" y1="279.98546" x2="276.53799" y2="279.98546"/><line id="_Path_48" data-name="&lt;Path&gt;" class="cls-8" x1="253.18658" y1="284.5388" x2="276.53799" y2="284.5388"/><line id="_Path_49" data-name="&lt;Path&gt;" class="cls-8" x1="253.18658" y1="289.09213" x2="276.53799" y2="289.09213"/><line id="_Path_50" data-name="&lt;Path&gt;" class="cls-8" x1="253.18658" y1="293.64546" x2="276.53799" y2="293.64546"/><line id="_Path_51" data-name="&lt;Path&gt;" class="cls-8" x1="253.18658" y1="305.33333" x2="301.0285" y2="305.33333"/><line id="_Path_52" data-name="&lt;Path&gt;" class="cls-8" x1="253.18658" y1="310.67283" x2="301.0285" y2="310.67283"/><line id="_Path_53" data-name="&lt;Path&gt;" class="cls-8" x1="253.18658" y1="316.01233" x2="301.0285" y2="316.01233"/><line id="_Path_54" data-name="&lt;Path&gt;" class="cls-8" x1="253.18658" y1="342.70983" x2="301.0285" y2="342.70983"/><line id="_Path_55" data-name="&lt;Path&gt;" class="cls-8" x1="253.18658" y1="348.04932" x2="301.0285" y2="348.04932"/><line id="_Path_56" data-name="&lt;Path&gt;" class="cls-8" x1="253.18658" y1="353.38882" x2="301.0285" y2="353.38882"/><circle id="_Path_57" data-name="&lt;Path&gt;" class="cls-13" cx="260.30591" cy="328.32877" r="7.11933"/><circle id="_Path_58" data-name="&lt;Path&gt;" class="cls-7" cx="296.32974" cy="328.32877" r="4.69876"/><polygon id="_Path_59" data-name="&lt;Path&gt;" class="cls-14" points="273.184 334.879 279.944 322.918 286.76 334.879 273.184 334.879"/></g><g id="_Group_12" data-name="&lt;Group&gt;"><rect id="_Rectangle_15" data-name="&lt;Rectangle&gt;" class="cls-15" x="317.82674" y="309.99641" width="7.41667" height="59.5" transform="translate(645.90181 676.79038) rotate(179.52055)"/><polygon id="_Path_60" data-name="&lt;Path&gt;" class="cls-7" points="325.492 369.464 321.851 377.495 318.076 369.526 325.492 369.464"/><polygon id="_Path_61" data-name="&lt;Path&gt;" class="cls-16" points="323.29 374.322 320.359 374.346 321.851 377.495 323.29 374.322"/><line id="_Path_62" data-name="&lt;Path&gt;" class="cls-8" x1="321.28613" y1="309.99745" x2="321.78401" y2="369.49537"/><rect id="_Rectangle_16" data-name="&lt;Rectangle&gt;" class="cls-10" x="317.56378" y="306.64674" width="7.41667" height="3.35076" transform="translate(645.11295 613.94512) rotate(179.52055)"/><rect id="_Rectangle_17" data-name="&lt;Rectangle&gt;" class="cls-2" x="317.52326" y="300.31358" width="7.41667" height="6.33333" transform="translate(644.9914 604.26187) rotate(179.52055)"/></g><rect class="cls-17" width="816.48649" height="378.56614"/></svg>